HIERARCHY
ROOT mixamorig:Hips
{
	OFFSET -0.000008 104.274872 1.554316
	CHANNELS 6 Xposition Yposition Zposition Xrotation Yrotation Zrotation
	JOINT mixamorig:Spine
	{
		OFFSET -0.000005 10.181595 0.131519
		CHANNELS 6 Xposition Yposition Zposition Xrotation Yrotation Zrotation
		JOINT mixamorig:Spine1
		{
			OFFSET -0.000000 9.893959 -1.470707
			CHANNELS 6 Xposition Yposition Zposition Xrotation Yrotation Zrotation
			JOINT mixamorig:Spine2
			{
				OFFSET -0.000000 9.220757 -1.370641
				CHANNELS 6 Xposition Yposition Zposition Xrotation Yrotation Zrotation
				JOINT mixamorig:Neck
				{
					OFFSET 0.000001 16.740417 -2.049036
					CHANNELS 6 Xposition Yposition Zposition Xrotation Yrotation Zrotation
					JOINT mixamorig:Head
					{
						OFFSET 0.000000 9.617874 1.685006
						CHANNELS 6 Xposition Yposition Zposition Xrotation Yrotation Zrotation
						JOINT mixamorig:HeadTop_End
						{
							OFFSET 0.000002 22.037354 7.501101
							CHANNELS 6 Xposition Yposition Zposition Xrotation Yrotation Zrotation
							End Site
							{
								OFFSET 0.000168 2310.654297 -282.823242
							}
						}
					}
				}
				JOINT mixamorig:RightShoulder
				{
					OFFSET -4.569970 11.014908 -2.160885
					CHANNELS 6 Xposition Yposition Zposition Xrotation Yrotation Zrotation
					JOINT mixamorig:RightArm
					{
						OFFSET -10.592851 -0.524811 -2.232101
						CHANNELS 6 Xposition Yposition Zposition Xrotation Yrotation Zrotation
						JOINT mixamorig:RightForeArm
						{
							OFFSET -27.841511 0.000031 -0.000004
							CHANNELS 6 Xposition Yposition Zposition Xrotation Yrotation Zrotation
							JOINT mixamorig:RightHand
							{
								OFFSET -28.328831 -0.000015 0.000015
								CHANNELS 6 Xposition Yposition Zposition Xrotation Yrotation Zrotation
								JOINT mixamorig:RightHandThumb1
								{
									OFFSET -2.464806 -1.573990 2.681852
									CHANNELS 6 Xposition Yposition Zposition Xrotation Yrotation Zrotation
									JOINT mixamorig:RightHandThumb2
									{
										OFFSET -3.215179 -1.872803 1.924282
										CHANNELS 6 Xposition Yposition Zposition Xrotation Yrotation Zrotation
										JOINT mixamorig:RightHandThumb3
										{
											OFFSET -2.654831 -1.527969 1.512609
											CHANNELS 6 Xposition Yposition Zposition Xrotation Yrotation Zrotation
											JOINT mixamorig:RightHandThumb4
											{
												OFFSET -2.018814 -1.152008 1.108052
												CHANNELS 6 Xposition Yposition Zposition Xrotation Yrotation Zrotation
												End Site
												{
													OFFSET -188.809540 -114.533607 132.431396
												}
											}
										}
									}
								}
								JOINT mixamorig:RightHandIndex1
								{
									OFFSET -9.108284 -0.517868 2.259835
									CHANNELS 6 Xposition Yposition Zposition Xrotation Yrotation Zrotation
									JOINT mixamorig:RightHandIndex2
									{
										OFFSET -3.699989 0.000000 0.001215
										CHANNELS 6 Xposition Yposition Zposition Xrotation Yrotation Zrotation
										JOINT mixamorig:RightHandIndex3
										{
											OFFSET -2.850006 0.000031 -0.000522
											CHANNELS 6 Xposition Yposition Zposition Xrotation Yrotation Zrotation
											JOINT mixamorig:RightHandIndex4
											{
												OFFSET -2.772186 -0.000015 -0.000020
												CHANNELS 6 Xposition Yposition Zposition Xrotation Yrotation Zrotation
												End Site
												{
													OFFSET -277.218445 0.000000 -0.050231
												}
											}
										}
									}
								}
								JOINT mixamorig:RightHandMiddle1
								{
									OFFSET -9.532516 -0.000031 -0.000023
									CHANNELS 6 Xposition Yposition Zposition Xrotation Yrotation Zrotation
									JOINT mixamorig:RightHandMiddle2
									{
										OFFSET -3.700005 -0.000015 0.003713
										CHANNELS 6 Xposition Yposition Zposition Xrotation Yrotation Zrotation
										JOINT mixamorig:RightHandMiddle3
										{
											OFFSET -2.949974 0.000015 -0.002054
											CHANNELS 6 Xposition Yposition Zposition Xrotation Yrotation Zrotation
											JOINT mixamorig:RightHandMiddle4
											{
												OFFSET -2.946640 0.000000 -0.000156
												CHANNELS 6 Xposition Yposition Zposition Xrotation Yrotation Zrotation
												End Site
												{
													OFFSET -294.664337 0.000000 -0.113670
												}
											}
										}
									}
								}
								JOINT mixamorig:RightHandRing1
								{
									OFFSET -9.103600 -0.043076 -1.865134
									CHANNELS 6 Xposition Yposition Zposition Xrotation Yrotation Zrotation
									JOINT mixamorig:RightHandRing2
									{
										OFFSET -3.379288 0.000000 -0.001055
										CHANNELS 6 Xposition Yposition Zposition Xrotation Yrotation Zrotation
										JOINT mixamorig:RightHandRing3
										{
											OFFSET -2.889687 -0.000015 0.000379
											CHANNELS 6 Xposition Yposition Zposition Xrotation Yrotation Zrotation
											JOINT mixamorig:RightHandRing4
											{
												OFFSET -2.638809 -0.000015 0.000941
												CHANNELS 6 Xposition Yposition Zposition Xrotation Yrotation Zrotation
												End Site
												{
													OFFSET -263.880371 0.000000 0.516020
												}
											}
										}
									}
								}
								JOINT mixamorig:RightHandPinky1
								{
									OFFSET -8.076683 -0.486710 -3.806280
									CHANNELS 6 Xposition Yposition Zposition Xrotation Yrotation Zrotation
									JOINT mixamorig:RightHandPinky2
									{
										OFFSET -3.600014 -0.000015 -0.003747
										CHANNELS 6 Xposition Yposition Zposition Xrotation Yrotation Zrotation
										JOINT mixamorig:RightHandPinky3
										{
											OFFSET -2.099983 0.000000 -0.005739
											CHANNELS 6 Xposition Yposition Zposition Xrotation Yrotation Zrotation
											JOINT mixamorig:RightHandPinky4
											{
												OFFSET -2.115768 -0.000031 -0.003680
												CHANNELS 6 Xposition Yposition Zposition Xrotation Yrotation Zrotation
												End Site
												{
													OFFSET -211.577087 0.000000 -0.350686
												}
											}
										}
									}
								}
							}
						}
					}
				}
				JOINT mixamorig:LeftShoulder
				{
					OFFSET 4.570447 11.014725 -2.160855
					CHANNELS 6 Xposition Yposition Zposition Xrotation Yrotation Zrotation
					JOINT mixamorig:LeftArm
					{
						OFFSET 10.592371 -0.524597 -2.232119
						CHANNELS 6 Xposition Yposition Zposition Xrotation Yrotation Zrotation
						JOINT mixamorig:LeftForeArm
						{
							OFFSET 27.841532 -0.000031 0.000026
							CHANNELS 6 Xposition Yposition Zposition Xrotation Yrotation Zrotation
							JOINT mixamorig:LeftHand
							{
								OFFSET 28.328846 -0.000061 0.000022
								CHANNELS 6 Xposition Yposition Zposition Xrotation Yrotation Zrotation
								JOINT mixamorig:LeftHandThumb1
								{
									OFFSET 2.466141 -1.576172 2.681732
									CHANNELS 6 Xposition Yposition Zposition Xrotation Yrotation Zrotation
									JOINT mixamorig:LeftHandThumb2
									{
										OFFSET 3.217812 -1.872070 1.916482
										CHANNELS 6 Xposition Yposition Zposition Xrotation Yrotation Zrotation
										JOINT mixamorig:LeftHandThumb3
										{
											OFFSET 2.656029 -1.528778 1.514513
											CHANNELS 6 Xposition Yposition Zposition Xrotation Yrotation Zrotation
											JOINT mixamorig:LeftHandThumb4
											{
												OFFSET 2.020889 -1.154053 1.115139
												CHANNELS 6 Xposition Yposition Zposition Xrotation Yrotation Zrotation
												End Site
												{
													OFFSET 190.885437 -115.081749 130.048782
												}
											}
										}
									}
								}
								JOINT mixamorig:LeftHandIndex1
								{
									OFFSET 9.109314 -0.518021 2.259871
									CHANNELS 6 Xposition Yposition Zposition Xrotation Yrotation Zrotation
									JOINT mixamorig:LeftHandIndex2
									{
										OFFSET 3.699989 0.000000 -0.000322
										CHANNELS 6 Xposition Yposition Zposition Xrotation Yrotation Zrotation
										JOINT mixamorig:LeftHandIndex3
										{
											OFFSET 2.850006 0.000000 0.000352
											CHANNELS 6 Xposition Yposition Zposition Xrotation Yrotation Zrotation
											JOINT mixamorig:LeftHandIndex4
											{
												OFFSET 2.774864 -0.000031 -0.000027
												CHANNELS 6 Xposition Yposition Zposition Xrotation Yrotation Zrotation
												End Site
												{
													OFFSET 277.486267 0.000000 -0.009857
												}
											}
										}
									}
								}
								JOINT mixamorig:LeftHandMiddle1
								{
									OFFSET 9.533394 0.000061 0.000044
									CHANNELS 6 Xposition Yposition Zposition Xrotation Yrotation Zrotation
									JOINT mixamorig:LeftHandMiddle2
									{
										OFFSET 3.699989 -0.000015 -0.000231
										CHANNELS 6 Xposition Yposition Zposition Xrotation Yrotation Zrotation
										JOINT mixamorig:LeftHandMiddle3
										{
											OFFSET 2.949997 -0.000015 -0.000059
											CHANNELS 6 Xposition Yposition Zposition Xrotation Yrotation Zrotation
											JOINT mixamorig:LeftHandMiddle4
											{
												OFFSET 2.952896 0.000031 0.000063
												CHANNELS 6 Xposition Yposition Zposition Xrotation Yrotation Zrotation
												End Site
												{
													OFFSET 295.289337 0.000000 0.022810
												}
											}
										}
									}
								}
								JOINT mixamorig:LeftHandRing1
								{
									OFFSET 9.104523 -0.042999 -1.865074
									CHANNELS 6 Xposition Yposition Zposition Xrotation Yrotation Zrotation
									JOINT mixamorig:LeftHandRing2
									{
										OFFSET 3.150009 -0.000031 0.000043
										CHANNELS 6 Xposition Yposition Zposition Xrotation Yrotation Zrotation
										JOINT mixamorig:LeftHandRing3
										{
											OFFSET 2.949982 -0.000015 0.000040
											CHANNELS 6 Xposition Yposition Zposition Xrotation Yrotation Zrotation
											JOINT mixamorig:LeftHandRing4
											{
												OFFSET 2.644348 0.000000 0.000057
												CHANNELS 6 Xposition Yposition Zposition Xrotation Yrotation Zrotation
												End Site
												{
													OFFSET 264.434631 0.000000 0.012105
												}
											}
										}
									}
								}
								JOINT mixamorig:LeftHandPinky1
								{
									OFFSET 8.077789 -0.486847 -3.806259
									CHANNELS 6 Xposition Yposition Zposition Xrotation Yrotation Zrotation
									JOINT mixamorig:LeftHandPinky2
									{
										OFFSET 3.599953 0.000031 0.014727
										CHANNELS 6 Xposition Yposition Zposition Xrotation Yrotation Zrotation
										JOINT mixamorig:LeftHandPinky3
										{
											OFFSET 2.100021 0.000015 0.007705
											CHANNELS 6 Xposition Yposition Zposition Xrotation Yrotation Zrotation
											JOINT mixamorig:LeftHandPinky4
											{
												OFFSET 2.125504 0.000031 0.007517
												CHANNELS 6 Xposition Yposition Zposition Xrotation Yrotation Zrotation
												End Site
												{
													OFFSET 212.550781 0.000000 0.625752
												}
											}
										}
									}
								}
							}
						}
					}
				}
			}
		}
	}
	JOINT mixamorig:RightUpLeg
	{
		OFFSET -8.207787 -6.751648 -1.599560
		CHANNELS 6 Xposition Yposition Zposition Xrotation Yrotation Zrotation
		JOINT mixamorig:RightLeg
		{
			OFFSET -0.000002 -44.370117 0.345942
			CHANNELS 6 Xposition Yposition Zposition Xrotation Yrotation Zrotation
			JOINT mixamorig:RightFoot
			{
				OFFSET 0.000003 -44.423679 -3.043532
				CHANNELS 6 Xposition Yposition Zposition Xrotation Yrotation Zrotation
				JOINT mixamorig:RightToeBase
				{
					OFFSET -0.000002 -8.728671 10.710558
					CHANNELS 6 Xposition Yposition Zposition Xrotation Yrotation Zrotation
					JOINT mixamorig:RightToe_End
					{
						OFFSET -0.000001 -0.000679 9.278119
						CHANNELS 6 Xposition Yposition Zposition Xrotation Yrotation Zrotation
						End Site
						{
							OFFSET 0.000000 -0.067690 927.812134
						}
					}
				}
			}
		}
	}
	JOINT mixamorig:LeftUpLeg
	{
		OFFSET 8.207793 -6.751686 -1.599556
		CHANNELS 6 Xposition Yposition Zposition Xrotation Yrotation Zrotation
		JOINT mixamorig:LeftLeg
		{
			OFFSET -0.000004 -44.370014 0.346954
			CHANNELS 6 Xposition Yposition Zposition Xrotation Yrotation Zrotation
			JOINT mixamorig:LeftFoot
			{
				OFFSET -0.000001 -44.423672 -3.044401
				CHANNELS 6 Xposition Yposition Zposition Xrotation Yrotation Zrotation
				JOINT mixamorig:LeftToeBase
				{
					OFFSET -0.000002 -8.728669 10.710558
					CHANNELS 6 Xposition Yposition Zposition Xrotation Yrotation Zrotation
					JOINT mixamorig:LeftToe_End
					{
						OFFSET -0.000003 -0.000679 9.278133
						CHANNELS 6 Xposition Yposition Zposition Xrotation Yrotation Zrotation
						End Site
						{
							OFFSET 0.000000 -0.068021 927.813477
						}
					}
				}
			}
		}
	}
}
MOTION
Frames: 3
Frame Time: 0.033333
0.000006 104.270477 1.554256 0.000010 0.000003 -0.000113 -0.000005 10.181587 0.131522 0.000001 -0.000003 0.000084 -0.000000 9.893967 -1.470711 0.000001 0.000000 -0.000000 -0.000000 9.220802 -1.370642 0.000000 -0.000000 -0.000000 0.000001 16.740433 -2.049030 0.000000 -0.000000 -0.000000 0.000000 9.617859 1.685014 0.000000 0.000000 0.000000 0.000002 22.037384 7.501101 0.000000 -0.000000 0.000000 -4.569968 11.014880 -2.160881 0.000008 0.000001 -0.000038 -10.592874 -0.524768 -2.231902 76.356788 30.668792 -24.335472 -27.841513 -0.000009 0.000559 -48.567986 108.402253 64.060454 -28.328804 0.000020 0.000031 -0.000321 -0.000042 0.000006 -2.464407 -1.573842 2.682355 -40.912147 -157.998108 5.871544 -3.215276 -1.872569 1.924628 151.708337 32.596835 13.407216 -2.654959 -1.527874 1.513066 145.241924 27.645310 -32.470719 -2.018838 -1.151998 1.108055 -0.000002 -0.000001 0.000004 -9.108374 -0.517558 2.260133 102.595896 15.500616 -19.338893 -3.700082 0.000329 0.001515 100.371918 11.769180 -14.069408 -2.850097 0.000379 -0.000235 101.133901 9.282416 -11.274433 -2.772176 -0.000016 -0.000020 -0.000000 -0.000001 -0.000001 -9.532574 0.000275 0.000248 97.149319 14.424128 -16.480309 -3.700067 0.000336 0.003995 98.077521 10.860074 -12.390615 -2.950058 0.000350 -0.001770 100.040005 10.439915 -12.427786 -2.946635 0.000001 -0.000155 0.000000 -0.000001 0.000001 -9.103691 -0.042766 -1.864860 96.397048 16.742785 -18.642093 -3.379344 0.000316 -0.000765 99.885595 11.356959 -13.510051 -2.889778 0.000334 0.000661 104.777253 8.471537 -11.042684 -2.638805 -0.000032 0.000942 0.000000 0.000001 0.000001 -8.076756 -0.486406 -3.806071 80.090450 18.735665 -15.657599 -3.600041 0.000278 -0.003516 87.390440 11.153031 -10.308100 -2.100017 0.000319 -0.005497 90.126279 7.329610 -7.120729 -2.115773 -0.000038 -0.003677 -0.000003 -0.000000 -0.000001 4.570446 11.014691 -2.160851 -0.000018 0.000010 -0.000021 10.592397 -0.524476 -2.232343 74.955910 -11.821941 9.077435 27.841822 0.000060 -0.000196 98.512146 -71.378619 79.642540 28.328838 -0.000029 0.000019 0.000024 -0.000089 0.000000 2.466052 -1.576167 2.681915 -33.931591 163.354383 -24.321851 3.217858 -1.871781 1.916395 159.685206 -25.344313 29.686041 2.656108 -1.528684 1.514470 137.158723 -28.451442 52.897869 2.020887 -1.154049 1.115147 0.000002 0.000000 0.000001 9.109385 -0.517885 2.259733 74.598404 -16.861183 12.873686 3.700027 0.000120 -0.000467 71.879606 -16.310966 11.875349 2.850039 0.000142 0.000223 68.174632 -13.614088 9.235657 2.774886 -0.000020 -0.000023 0.000001 -0.000001 0.000001 9.533474 0.000175 -0.000078 74.444458 -15.378111 11.704926 3.700046 0.000138 -0.000362 77.036119 -14.135611 11.269976 2.950070 0.000132 -0.000196 76.225738 -16.968942 13.351406 2.952862 -0.000030 0.000067 -0.000001 0.000001 0.000001 9.104591 -0.042876 -1.865226 73.897114 -14.545374 10.967271 3.150062 0.000166 -0.000088 78.608271 -13.109746 10.748747 2.950013 0.000139 -0.000076 78.906232 -14.391203 11.865029 2.644324 0.000020 0.000056 0.000000 -0.000000 0.000000 8.077852 -0.486761 -3.806400 64.264061 -16.177431 10.581735 3.599998 0.000132 0.014572 66.431171 -14.082089 9.591840 2.100047 0.000134 0.007549 68.814074 -13.339965 9.500087 2.125505 -0.000001 0.007512 0.000003 -0.000000 -0.000000 -8.207786 -6.751667 -1.599560 -0.077001 -0.000003 0.000080 -0.000002 -44.370110 0.345938 0.153719 -0.000000 -0.000000 0.000000 -44.423679 -3.043532 -0.076700 0.000000 -0.000002 -0.000006 -8.728667 10.710559 -0.000009 -0.000000 -0.000000 -0.000001 -0.000679 9.278123 0.000000 -0.000000 -0.000000 8.207792 -6.751710 -1.599556 -0.074518 -0.000003 0.000081 -0.000002 -44.370014 0.346960 0.148822 0.000002 0.000000 -0.000001 -44.423664 -3.044403 -0.074314 0.000000 -0.000002 -0.000004 -8.728671 10.710558 0.000007 -0.000000 -0.000000 0.000000 -0.000680 9.278137 -0.000000 0.000000 -0.000001 
0.000006 104.270477 1.554256 0.000010 0.000003 -0.000113 -0.000005 10.181587 0.131522 0.000001 -0.000003 0.000084 -0.000000 9.893967 -1.470711 0.000001 0.000000 -0.000000 -0.000000 9.220802 -1.370642 0.000000 -0.000000 -0.000000 0.000001 16.740433 -2.049030 0.000000 -0.000000 -0.000000 0.000000 9.617859 1.685014 0.000000 0.000000 0.000000 0.000002 22.037384 7.501101 0.000000 -0.000000 0.000000 -4.569968 11.014880 -2.160881 0.000008 0.000001 -0.000038 -10.592871 -0.524794 -2.231871 76.710490 35.767214 -28.647613 -27.841507 0.000001 0.000545 -46.031910 105.600667 58.468345 -28.328812 0.000018 0.000030 -0.000322 -0.000044 0.000006 -2.464388 -1.573828 2.682340 -43.676430 -157.124294 -0.680355 -3.215249 -1.872527 1.924634 149.746666 33.511094 23.441949 -2.654951 -1.527889 1.513058 147.229673 27.399920 -31.710461 -2.018819 -1.151995 1.108063 -0.000004 0.000001 0.000005 -9.108368 -0.517545 2.260132 101.714801 15.023172 -18.460944 -3.700060 0.000317 0.001518 99.131795 12.165895 -14.230323 -2.850079 0.000376 -0.000248 98.090874 10.315653 -11.874275 -2.772170 -0.000000 -0.000020 0.000000 -0.000000 -0.000001 -9.532581 0.000267 0.000250 96.825301 15.287225 -17.357430 -3.700067 0.000340 0.003980 97.184726 10.961079 -12.312954 -2.950049 0.000342 -0.001798 98.950665 10.816757 -12.631739 -2.946632 0.000015 -0.000156 0.000003 -0.000001 0.000000 -9.103689 -0.042767 -1.864857 96.205994 17.761945 -19.710142 -3.379328 0.000303 -0.000770 99.460627 9.837619 -11.621889 -2.889745 0.000345 0.000690 105.104249 7.762465 -10.184604 -2.638809 -0.000016 0.000941 0.000001 -0.000000 0.000003 -8.076752 -0.486402 -3.806053 81.027572 21.164579 -18.005692 -3.600048 0.000272 -0.003538 83.566593 10.764120 -9.296789 -2.100027 0.000312 -0.005502 87.859510 6.106032 -5.669710 -2.115771 -0.000027 -0.003678 -0.000001 -0.000001 -0.000002 4.570446 11.014691 -2.160851 -0.000018 0.000010 -0.000021 10.592408 -0.524472 -2.232364 73.743066 -15.350562 11.543870 27.841824 0.000044 -0.000194 100.950968 -74.326241 85.151210 28.328817 -0.000029 0.000023 0.000023 -0.000087 -0.000000 2.466202 -1.576135 2.681859 -12.304936 165.929911 -70.848630 3.217880 -1.871875 1.916428 160.843278 -21.029312 47.126246 2.656107 -1.528698 1.514495 136.617703 -28.498597 62.000318 2.020891 -1.154082 1.115145 0.000003 0.000008 0.000006 9.109374 -0.517897 2.259742 73.099936 -17.537901 13.037351 3.700026 0.000139 -0.000465 73.445803 -12.420528 9.294503 2.850046 0.000155 0.000195 71.699399 -9.636090 6.969412 2.774895 -0.000029 -0.000024 -0.000000 -0.000001 -0.000000 9.533453 0.000175 -0.000092 74.091269 -16.689014 12.628447 3.700033 0.000165 -0.000381 77.961787 -11.078777 8.972799 2.950051 0.000151 -0.000206 77.382082 -11.030436 8.846328 2.952888 -0.000015 0.000065 0.000001 -0.000002 0.000000 9.104578 -0.042878 -1.865218 75.086045 -16.176330 12.467208 3.150045 0.000166 -0.000091 78.023990 -12.141847 9.850617 2.950018 0.000144 -0.000095 78.365369 -10.474587 8.546997 2.644332 0.000015 0.000065 -0.000001 0.000001 0.000000 8.077846 -0.486756 -3.806409 67.544875 -18.258547 12.679083 3.600010 0.000129 0.014584 67.420401 -16.043230 11.101640 2.100022 0.000140 0.007550 69.558947 -12.333416 8.924174 2.125500 -0.000014 0.007517 0.000002 -0.000000 -0.000002 -8.207786 -6.751667 -1.599560 -0.077001 -0.000003 0.000080 -0.000002 -44.370110 0.345938 0.153719 -0.000000 -0.000000 0.000000 -44.423679 -3.043532 -0.076700 0.000000 -0.000002 -0.000006 -8.728667 10.710559 -0.000009 -0.000000 -0.000000 -0.000001 -0.000679 9.278123 0.000000 -0.000000 -0.000000 8.207792 -6.751710 -1.599556 -0.074518 -0.000003 0.000081 -0.000002 -44.370014 0.346960 0.148822 0.000002 0.000000 -0.000001 -44.423664 -3.044403 -0.074314 0.000000 -0.000002 -0.000004 -8.728671 10.710558 0.000007 -0.000000 -0.000000 0.000000 -0.000680 9.278137 -0.000000 0.000000 -0.000001 
0.000006 104.270477 1.554256 0.000010 0.000003 -0.000113 -0.000005 10.181587 0.131522 0.000001 -0.000003 0.000084 -0.000000 9.893967 -1.470711 0.000001 0.000000 -0.000000 -0.000000 9.220802 -1.370642 0.000000 -0.000000 -0.000000 0.000001 16.740433 -2.049030 0.000000 -0.000000 -0.000000 0.000000 9.617859 1.685014 0.000000 0.000000 0.000000 0.000002 22.037384 7.501101 0.000000 -0.000000 0.000000 -4.569968 11.014880 -2.160881 0.000008 0.000001 -0.000038 -10.592862 -0.524794 -2.231852 76.885151 38.422502 -30.923494 -27.841516 0.000016 0.000544 -45.250837 104.399885 56.499000 -28.328831 0.000020 0.000022 -0.000324 -0.000045 0.000008 -2.464401 -1.573818 2.682337 -43.671328 -156.819805 -0.735793 -3.215261 -1.872525 1.924619 148.607855 33.565664 26.420910 -2.654968 -1.527881 1.513059 147.311198 27.520243 -30.321071 -2.018831 -1.152013 1.108060 -0.000003 -0.000003 0.000004 -9.108357 -0.517530 2.260130 101.486038 14.964371 -18.315758 -3.700068 0.000320 0.001507 99.363072 12.499311 -14.679074 -2.850072 0.000367 -0.000260 98.269169 10.727049 -12.385561 -2.772170 0.000001 -0.000023 0.000000 -0.000001 -0.000001 -9.532588 0.000279 0.000243 96.679818 15.145439 -17.154923 -3.700061 0.000318 0.003995 97.322116 11.355119 -12.788722 -2.950062 0.000322 -0.001798 98.932367 11.147696 -13.013375 -2.946623 0.000000 -0.000155 0.000000 0.000000 -0.000001 -9.103695 -0.042757 -1.864860 96.099853 17.906596 -19.834130 -3.379354 0.000307 -0.000777 99.855870 10.391743 -12.359670 -2.889768 0.000349 0.000672 105.421975 8.295414 -10.940828 -2.638801 -0.000029 0.000939 0.000001 0.000002 -0.000000 -8.076748 -0.486411 -3.806045 80.316235 21.399087 -17.983688 -3.600069 0.000266 -0.003538 83.890501 11.216950 -9.755463 -2.100025 0.000320 -0.005491 88.130764 6.452759 -6.031220 -2.115775 -0.000054 -0.003680 0.000004 -0.000001 -0.000006 4.570446 11.014691 -2.160851 -0.000018 0.000010 -0.000021 10.592442 -0.524469 -2.232397 73.773051 -27.601447 20.889316 27.841818 0.000026 -0.000189 101.477193 -76.563361 87.993744 28.328848 -0.000027 0.000023 0.000023 -0.000090 -0.000000 2.466263 -1.576040 2.681821 0.176894 171.995911 -96.846202 3.217895 -1.871875 1.916435 160.179424 -20.247175 51.092776 2.656115 -1.528701 1.514495 137.552469 -28.134803 61.242707 2.020879 -1.154081 1.115145 0.000001 0.000001 0.000004 9.109369 -0.517895 2.259740 74.026669 -18.552066 14.029829 3.700021 0.000139 -0.000464 74.352353 -12.652627 9.625082 2.850024 0.000169 0.000214 72.959548 -9.521760 7.046941 2.774872 -0.000031 -0.000026 0.000000 0.000001 -0.000000 9.533456 0.000173 -0.000084 74.542902 -17.422324 13.294634 3.700053 0.000153 -0.000364 77.840811 -11.098794 8.969743 2.950044 0.000157 -0.000199 77.410393 -10.687394 8.575016 2.952857 -0.000015 0.000063 0.000000 0.000001 0.000000 9.104589 -0.042882 -1.865234 75.330259 -17.008884 13.169976 3.150033 0.000174 -0.000091 78.143382 -12.512767 10.173847 2.950024 0.000165 -0.000072 78.389569 -10.376697 8.470621 2.644324 0.000030 0.000059 0.000001 -0.000001 0.000000 8.077845 -0.486757 -3.806382 68.094459 -18.988484 13.313266 3.599998 0.000145 0.014570 67.568930 -16.489912 11.436640 2.100027 0.000146 0.007550 69.447711 -12.475893 9.005787 2.125520 -0.000015 0.007513 0.000002 0.000001 -0.000001 -8.207786 -6.751667 -1.599560 -0.077001 -0.000003 0.000080 -0.000002 -44.370110 0.345938 0.153719 -0.000000 -0.000000 0.000000 -44.423679 -3.043532 -0.076700 0.000000 -0.000002 -0.000006 -8.728667 10.710559 -0.000009 -0.000000 -0.000000 -0.000001 -0.000679 9.278123 0.000000 -0.000000 -0.000000 8.207792 -6.751710 -1.599556 -0.074518 -0.000003 0.000081 -0.000002 -44.370014 0.346960 0.148822 0.000002 0.000000 -0.000001 -44.423664 -3.044403 -0.074314 0.000000 -0.000002 -0.000004 -8.728671 10.710558 0.000007 -0.000000 -0.000000 0.000000 -0.000680 9.278137 -0.000000 0.000000 -0.000001 
